<?xml version="1.0" encoding="UTF-8" standalone="no"?>
<!-- Created with Inkscape (http://www.inkscape.org/) -->

<svg
   width="17.48402mm"
   height="22.838215mm"
   viewBox="0 0 17.48402 22.838215"
   version="1.1"
   id="svg1"
   xml:space="preserve"
   inkscape:version="1.3 (0e150ed6c4, 2023-07-21)"
   sodipodi:docname="logo solo.svg"
   xmlns:inkscape="http://www.inkscape.org/namespaces/inkscape"
   xmlns:sodipodi="http://sodipodi.sourceforge.net/DTD/sodipodi-0.dtd"
   xmlns="http://www.w3.org/2000/svg"
   xmlns:svg="http://www.w3.org/2000/svg"><sodipodi:namedview
     id="namedview1"
     pagecolor="#ffffff"
     bordercolor="#000000"
     borderopacity="0.25"
     inkscape:showpageshadow="2"
     inkscape:pageopacity="0.0"
     inkscape:pagecheckerboard="0"
     inkscape:deskcolor="#d1d1d1"
     inkscape:document-units="mm"
     inkscape:zoom="2.6557772"
     inkscape:cx="16.944192"
     inkscape:cy="49.138158"
     inkscape:window-width="1366"
     inkscape:window-height="705"
     inkscape:window-x="-8"
     inkscape:window-y="-8"
     inkscape:window-maximized="1"
     inkscape:current-layer="layer1" /><defs
     id="defs1" /><g
     inkscape:label="Lapis 1"
     inkscape:groupmode="layer"
     id="layer1"
     transform="translate(-125.66294,-105.13145)"><path
       d="m 133.24228,105.53226 c -0.35864,0.0398 -0.66911,0.8532 -0.77027,1.14843 -0.14961,0.43655 -0.39046,0.91817 -0.56989,1.35713 -0.18574,0.45429 -0.36174,0.91478 -0.55316,1.36625 -0.18703,0.4412 -0.41452,0.91887 -0.54683,1.37638 -0.2875,0.9941 -0.21139,2.20367 0.6018,2.9346 0.32076,0.2883 0.93331,0.58916 1.36709,0.57115 0.56844,-0.0237 0.86732,-0.58353 0.39065,-0.95514 -0.40397,-0.3149 -0.97672,-0.17846 -1.24468,-0.70363 -0.23102,-0.45276 -0.15899,-1.15053 -0.0296,-1.62585 0.25517,-0.93678 0.7669,-1.8138 1.10928,-2.72037 0.0883,-0.23377 0.29093,-1.1446 0.63215,-1.05738 0.24172,0.0618 0.71158,0.75277 0.92882,0.97254 0.63425,0.64172 1.20926,1.3295 1.84901,1.96756 0.92723,0.92481 1.0378,1.42039 0.15746,2.44306 -0.32578,0.37846 -0.59012,0.77304 -0.64494,1.28304 -0.0754,0.70145 0.0901,0.91415 0.62126,1.32355 0.52593,0.40533 0.0767,0.5752 -0.0706,1.05881 -0.18004,0.59134 0.51703,0.73722 0.92098,0.48424 0.44338,-0.27767 0.65595,-0.76068 0.62604,-1.27473 -0.0406,-0.69912 -0.4817,-0.71469 -0.83943,-1.12299 -0.36506,-0.41673 -0.002,-0.84407 0.28474,-1.17051 0.33326,-0.37923 0.59593,-0.71216 0.7183,-1.21779 0.26731,-1.10432 -0.34895,-1.89596 -1.06894,-2.63528 -0.62748,-0.64434 -1.23389,-1.33428 -1.85398,-1.99227 -0.33204,-0.35231 -1.06935,-1.24809 -1.38608,-1.49843 -0.0831,-0.0657 -0.33409,-0.33215 -0.62927,-0.31237 z"
       style="fill:#94c84b;fill-rule:evenodd;stroke-width:0.0621246"
       id="path1" /><path
       d="m 139.77539,118.65575 c 0.072,0.62575 0.42878,0.38512 0.79721,0.24939 0.46433,-0.17103 0.24435,0.61756 0.1834,0.81316 -0.20779,0.66687 -0.54625,1.20515 -1.07663,1.66229 -1.26468,1.09008 -2.48623,1.41492 -4.08004,0.75272 -0.71468,-0.29694 -1.51157,-0.82592 -1.93879,-1.48778 -0.23808,-0.36889 -0.14797,-0.21776 0.0718,-0.30606 0.41428,-0.16645 0.33336,-0.72189 0.0402,-0.85829 -0.56344,-0.26208 -1.51157,0.34126 -1.64908,0.95057 -0.0657,0.29108 -0.23968,0.90939 0.21681,1.00101 0.20168,0.0404 0.38086,-0.0628 0.42782,-0.26353 0.0723,-0.30877 0.0393,-0.30395 0.24492,-0.0513 0.46469,0.57086 0.76321,0.95997 1.3961,1.37262 0.59222,0.38614 1.27942,0.64652 1.97168,0.78825 1.49188,0.30543 3.005,-0.23406 4.01577,-1.35717 0.4146,-0.4607 0.84374,-1.10842 1.06101,-1.6893 0.0584,-0.15617 0.13595,-0.98916 0.29608,-0.94209 0.20603,0.0606 0.46952,0.67067 0.81492,0.26937 0.44478,-0.51683 -0.58834,-1.31052 -0.98672,-1.52437 -0.39372,-0.21133 -0.71143,-0.18836 -1.12486,-0.0593 -0.32339,0.10094 -0.72932,0.26474 -0.68153,0.67984 z"
       style="fill:#92c34b;fill-rule:evenodd;stroke-width:0.0621246"
       id="path2" /><path
       d="m 129.53356,114.94101 c 0.0237,-0.28257 -0.16643,-0.53933 -0.43685,-0.59068 -0.28914,-0.0549 -0.62845,0.006 -0.90983,0.0815 -0.51013,0.13682 -0.92249,0.41682 -1.29447,0.78434 -1.5142,1.49618 -1.01135,4.50691 1.70612,4.98023 0.55329,0.0964 1.26521,0.16703 1.06047,0.94326 -0.19292,0.73135 -1.09607,0.22513 -1.18145,0.91763 -0.13307,1.07945 1.89277,0.68311 2.21956,-0.6821 0.34241,-1.43025 -0.61537,-1.98713 -1.83176,-2.21632 -0.57422,-0.1082 -0.98101,-0.26657 -1.36151,-0.73269 -0.36854,-0.45151 -0.45608,-1.10207 -0.31217,-1.65663 0.11789,-0.45422 0.51864,-0.92947 0.92137,-1.16431 0.46228,-0.26956 1.37026,-0.0648 1.42052,-0.6642 z"
       style="fill:#65318e;fill-rule:evenodd;stroke-width:0.0621246"
       id="path3" /><path
       d="m 134.87339,112.41775 c 0.008,-0.23836 0.0512,-0.54129 -0.15974,-0.71204 -0.1683,-0.13621 -0.50618,-0.14164 -0.68127,-0.0161 -0.25712,0.18435 -0.24618,1.21527 -0.22782,1.52681 0.0649,1.10279 0.14544,2.02531 0.41339,3.10302 0.41059,1.65173 1.56168,3.49799 3.44989,3.5904 0.38124,0.0186 1.27471,0.0414 1.59079,-0.16415 0.38301,-0.24913 0.29126,-0.95484 -0.38756,-0.91988 -0.28527,0.0146 -0.51391,0.0872 -0.81782,0.0791 -0.73075,-0.0194 -1.32124,-0.2665 -1.82351,-0.81109 -1.18841,-1.28855 -1.41334,-4.00885 -1.35635,-5.67606 z"
       style="fill:#65318e;fill-rule:evenodd;stroke-width:0.0621246"
       id="path4" /><path
       d="m 131.31735,116.20616 c 0.18791,-0.0475 0.54092,0.0503 0.682,0.18634 0.13393,0.1292 0.32641,0.3537 0.34212,0.54636 0.0405,0.49736 -0.22313,0.98073 -0.75304,1.01679 -0.24059,0.0164 -0.50839,0.009 -0.69527,-0.1677 -0.14043,-0.13255 -0.32593,-0.35548 -0.33004,-0.55926 -0.008,-0.38872 -0.0107,-0.38613 0.19853,-0.69358 0.12089,-0.1777 0.35655,-0.27861 0.5557,-0.32895 z m -1.83987,0.99529 c 0.0617,0.47125 0.26937,1.00471 0.64311,1.31533 0.38803,0.32252 0.90729,0.57599 1.42798,0.52556 0.56538,-0.0547 0.93837,-0.22548 1.32999,-0.6349 0.34462,-0.36031 0.58472,-0.8915 0.52868,-1.40436 -0.12407,-1.13558 -0.91516,-1.87262 -2.06876,-1.85057 -0.48957,0.01 -0.99852,0.27607 -1.33553,0.62459 -0.27748,0.28698 -0.57621,1.03691 -0.52547,1.42435 z"
       style="fill:#65318e;fill-rule:evenodd;stroke-width:0.0621246"
       id="path5" /><path
       d="m 139.81531,115.35278 c -0.0576,-0.52909 0.32117,-0.89103 0.81535,-0.96993 0.15494,-0.0247 0.5201,0.13137 0.64879,0.23823 0.15768,0.13088 0.28839,0.38121 0.31033,0.58209 0.025,0.2295 -0.0937,0.48368 -0.23598,0.65807 -0.1542,0.1891 -0.35045,0.26592 -0.58674,0.3061 -0.18938,0.0322 -0.51187,-0.0829 -0.65577,-0.22048 -0.19582,-0.18723 -0.26656,-0.32384 -0.29598,-0.59408 z m 0.5366,-1.98368 c -0.98354,0.18433 -1.77952,1.22651 -1.5587,2.22903 0.10107,0.45899 0.30658,0.94465 0.70491,1.22446 0.41439,0.29108 1.00123,0.49103 1.5076,0.38123 1.08389,-0.23501 1.75024,-1.11943 1.60542,-2.23832 -0.13477,-1.04121 -1.23983,-1.78745 -2.25923,-1.5964 z"
       style="fill:#65318e;fill-rule:evenodd;stroke-width:0.0621246"
       id="path6" /><path
       d="m 126.08822,125.93249 h 0.23316 v 0.34362 h 0.13849 v 0.20163 h -0.13849 v 0.72934 h -0.23316 v -0.72934 h -0.11924 v -0.20163 h 0.11924 z m 0.73128,-0.0158 h 0.23317 v 0.45466 c 0.0455,-0.0395 0.0912,-0.069 0.13735,-0.0886 0.0459,-0.0195 0.0926,-0.0296 0.13968,-0.0296 0.0921,0 0.16976,0.0319 0.23289,0.0958 0.054,0.0553 0.081,0.13649 0.081,0.24342 v 0.61451 h -0.22966 v -0.40762 c 0,-0.10753 -0.005,-0.1806 -0.0152,-0.21857 -0.0102,-0.0383 -0.0278,-0.0666 -0.0526,-0.0856 -0.0246,-0.0187 -0.0552,-0.0281 -0.0915,-0.0281 -0.047,0 -0.0876,0.0158 -0.12155,0.0471 -0.0336,0.0313 -0.0569,0.074 -0.0702,0.12797 -0.007,0.0281 -0.0102,0.0918 -0.0102,0.19142 v 0.37344 h -0.23321 z m 2.21424,0.89065 h -0.74951 c 0.0108,0.0663 0.0398,0.1192 0.0865,0.15866 0.0468,0.0392 0.10665,0.0587 0.17915,0.0587 0.0871,0 0.16158,-0.0307 0.22412,-0.0921 l 0.19577,0.0926 c -0.0488,0.0695 -0.10753,0.12096 -0.17561,0.15457 -0.0685,0.0333 -0.14933,0.05 -0.24313,0.05 -0.14553,0 -0.26416,-0.0459 -0.35559,-0.13791 -0.0915,-0.0918 -0.13736,-0.20691 -0.13736,-0.34509 0,-0.14173 0.0458,-0.2595 0.13736,-0.35302 0.0915,-0.0938 0.20598,-0.14053 0.34419,-0.14053 0.1464,0 0.26562,0.0467 0.35738,0.13995 0.0918,0.0935 0.13764,0.21653 0.13764,0.36996 z m -0.23231,-0.18234 c -0.0154,-0.0508 -0.0458,-0.0923 -0.0912,-0.12421 -0.0455,-0.0319 -0.0982,-0.0477 -0.15836,-0.0477 -0.0651,0 -0.12215,0.0178 -0.17152,0.0537 -0.0307,0.0221 -0.0593,0.0616 -0.0856,0.11805 z m 1.71517,-0.21712 -0.14438,0.14523 c -0.0584,-0.0585 -0.11162,-0.0877 -0.15956,-0.0877 -0.0259,0 -0.0464,0.006 -0.0613,0.0166 -0.0148,0.0111 -0.0222,0.0249 -0.0222,0.0412 0,0.0125 0.005,0.024 0.014,0.0345 0.01,0.0105 0.0327,0.0248 0.0698,0.0432 l 0.0853,0.0427 c 0.09,0.0441 0.15195,0.0895 0.18555,0.13528 0.0336,0.0462 0.0503,0.1 0.0503,0.16189 0,0.0824 -0.0304,0.15136 -0.0912,0.2063 -0.0608,0.0552 -0.14231,0.0827 -0.24457,0.0827 -0.1356,0 -0.24429,-0.0529 -0.32525,-0.15897 l 0.14407,-0.15661 c 0.0274,0.0319 0.0596,0.0579 0.0967,0.0775 0.0368,0.0195 0.0695,0.0296 0.0982,0.0296 0.0307,0 0.0558,-0.008 0.0745,-0.0221 0.019,-0.0149 0.0284,-0.0319 0.0284,-0.0511 0,-0.0359 -0.034,-0.0711 -0.10198,-0.10492 l -0.0787,-0.0395 c -0.15077,-0.0757 -0.22616,-0.17038 -0.22616,-0.28403 0,-0.0734 0.0284,-0.13618 0.085,-0.18819 0.0566,-0.052 0.12915,-0.078 0.21738,-0.078 0.0605,0 0.1172,0.0134 0.17068,0.0401 0.0532,0.0266 0.0982,0.0648 0.1353,0.11454 z m 0.66666,-0.13178 v 0.10226 c 0.0421,-0.0415 0.0876,-0.0731 0.13676,-0.0938 0.0491,-0.0207 0.10168,-0.0313 0.1575,-0.0313 0.12128,0 0.22442,0.0458 0.30944,0.13734 0.085,0.0918 0.12741,0.20922 0.12741,0.35267 0,0.13822 -0.0438,0.25395 -0.1318,0.34686 -0.0876,0.0932 -0.19166,0.13968 -0.31206,0.13968 -0.0534,0 -0.10344,-0.01 -0.14961,-0.0287 -0.0461,-0.019 -0.0921,-0.0503 -0.13764,-0.0938 v 0.43976 h -0.23316 v -1.27108 z m 0.24487,0.19108 c -0.0734,0 -0.13441,0.025 -0.18261,0.0751 -0.0485,0.0503 -0.0728,0.1157 -0.0728,0.19665 0,0.0827 0.0243,0.14959 0.0728,0.20045 0.0481,0.0511 0.10927,0.0766 0.18261,0.0766 0.0714,0 0.13121,-0.0259 0.18002,-0.0777 0.0488,-0.052 0.0731,-0.11805 0.0731,-0.19843 0,-0.0798 -0.024,-0.14522 -0.0719,-0.19606 -0.0477,-0.0511 -0.10812,-0.0767 -0.18119,-0.0767 z m 1.00394,-0.57329 c 0.0409,0 0.076,0.0148 0.10517,0.0444 0.0296,0.0296 0.0441,0.0651 0.0441,0.10725 0,0.0415 -0.0145,0.0768 -0.0435,0.10608 -0.029,0.0293 -0.0637,0.0438 -0.1043,0.0438 -0.0415,0 -0.0768,-0.0148 -0.10607,-0.0447 -0.0296,-0.0299 -0.0441,-0.066 -0.0441,-0.10868 0,-0.0409 0.0145,-0.0757 0.0435,-0.10462 0.029,-0.029 0.0639,-0.0435 0.1052,-0.0435 z m -0.1172,0.38221 h 0.2332 v 0.93096 h -0.2332 z m 0.6223,0 h 0.20162 v 0.11834 c 0.0217,-0.0462 0.0503,-0.0813 0.0859,-0.10521 0.036,-0.024 0.0751,-0.0359 0.11747,-0.0359 0.0301,0 0.0616,0.008 0.0947,0.024 l -0.0724,0.20163 c -0.0272,-0.0137 -0.0497,-0.0204 -0.0671,-0.0204 -0.0357,0 -0.0661,0.0222 -0.0906,0.0665 -0.0248,0.0444 -0.0372,0.13148 -0.0372,0.26122 l 8.9e-4,0.0453 v 0.3755 h -0.2332 z m 0.93963,-0.38221 c 0.0409,0 0.076,0.0148 0.10518,0.0444 0.0296,0.0296 0.0441,0.0651 0.0441,0.10725 0,0.0415 -0.0145,0.0768 -0.0435,0.10608 -0.029,0.0293 -0.0636,0.0438 -0.1043,0.0438 -0.0415,0 -0.0769,-0.0148 -0.10608,-0.0447 -0.0296,-0.0299 -0.0441,-0.066 -0.0441,-0.10868 0,-0.0409 0.0145,-0.0757 0.0435,-0.10462 0.029,-0.029 0.0639,-0.0435 0.10518,-0.0435 z m -0.11719,0.38221 h 0.2332 v 0.93096 h -0.2332 z m 0.70473,-0.34363 h 0.23316 v 0.34363 h 0.13849 v 0.20162 h -0.13849 v 0.72934 h -0.23316 v -0.72934 h -0.11924 v -0.20162 h 0.11924 z m 4.27316,-0.0386 c 0.0415,0 0.0768,0.0145 0.10606,0.0441 0.0296,0.0296 0.0441,0.0651 0.0441,0.10696 0,0.0415 -0.0146,0.0769 -0.0435,0.10634 -0.029,0.0296 -0.0637,0.0441 -0.10433,0.0441 -0.0415,0 -0.0769,-0.0148 -0.10608,-0.045 -0.0296,-0.0301 -0.0441,-0.0663 -0.0441,-0.10871 0,-0.0409 0.0144,-0.0757 0.0432,-0.1046 0.0287,-0.029 0.0634,-0.0432 0.10461,-0.0432 z m -0.11629,0.38221 h 0.23317 v 0.96049 c 0,0.0885 -0.009,0.15428 -0.026,0.19782 -0.0175,0.0438 -0.045,0.0771 -0.0827,0.1005 -0.0374,0.0233 -0.083,0.035 -0.13587,0.035 -0.0467,0 -0.10491,-0.0117 -0.17444,-0.035 v -0.18439 c 0.0366,0.0178 0.0686,0.0267 0.0967,0.0267 0.0298,0 0.052,-0.009 0.0668,-0.0267 0.0148,-0.0175 0.0222,-0.05 0.0222,-0.0973 z m 1.38349,0 h 0.23317 v 0.93097 h -0.23317 v -0.0991 c -0.0456,0.0432 -0.0915,0.0743 -0.13735,0.0932 -0.0459,0.019 -0.0958,0.0287 -0.1493,0.0287 -0.1207,0 -0.22473,-0.0465 -0.31267,-0.13969 -0.0879,-0.0929 -0.13179,-0.20863 -0.13179,-0.34685 0,-0.14346 0.0427,-0.26092 0.1277,-0.35268 0.085,-0.0915 0.18816,-0.13733 0.30976,-0.13733 0.056,0 0.10838,0.0105 0.15747,0.0313 0.0491,0.0207 0.0944,0.0523 0.13618,0.0938 z m -0.24575,0.19108 c -0.0725,0 -0.13266,0.0254 -0.18029,0.0767 -0.048,0.0509 -0.0718,0.11629 -0.0718,0.19606 0,0.0804 0.0242,0.14641 0.0731,0.19843 0.0488,0.0517 0.1087,0.0777 0.18,0.0777 0.0734,0 0.13441,-0.0254 0.18261,-0.0766 0.0485,-0.0508 0.0728,-0.11778 0.0728,-0.20045 0,-0.081 -0.0242,-0.14641 -0.0728,-0.19666 -0.0482,-0.05 -0.10957,-0.0751 -0.18349,-0.0751 z m 0.84699,-0.19108 h 0.23903 l 0.23434,0.54934 0.2364,-0.54934 h 0.23698 l -0.4006,0.93097 h -0.14905 z m 2.00181,0 h 0.23317 v 0.93097 h -0.23317 v -0.0991 c -0.0456,0.0432 -0.0915,0.0743 -0.13733,0.0932 -0.0459,0.019 -0.0958,0.0287 -0.14931,0.0287 -0.12069,0 -0.22474,-0.0465 -0.31269,-0.13969 -0.0879,-0.0929 -0.13177,-0.20863 -0.13177,-0.34685 0,-0.14346 0.0427,-0.26092 0.1277,-0.35268 0.085,-0.0915 0.18816,-0.13733 0.30974,-0.13733 0.056,0 0.10839,0.0105 0.15749,0.0313 0.0491,0.0207 0.0944,0.0523 0.13617,0.0938 z m -0.24576,0.19108 c -0.0725,0 -0.13264,0.0254 -0.18027,0.0767 -0.048,0.0509 -0.0719,0.11629 -0.0719,0.19606 0,0.0804 0.0242,0.14641 0.0731,0.19843 0.0488,0.0517 0.10868,0.0777 0.17998,0.0777 0.0734,0 0.13442,-0.0254 0.18264,-0.0766 0.0485,-0.0508 0.0727,-0.11778 0.0727,-0.20045 0,-0.081 -0.0242,-0.14641 -0.0727,-0.19666 -0.0482,-0.05 -0.10959,-0.0751 -0.18352,-0.0751 z"
       style="fill:#5e3c7b;fill-rule:evenodd;stroke-width:0.0621246"
       id="path7" /><path
       d="m 136.27277,126.25418 c 0.0879,0 0.17063,0.0219 0.24807,0.0657 0.0777,0.0438 0.13792,0.10315 0.18146,0.17823 0.0435,0.0754 0.0651,0.15632 0.0651,0.24341 0,0.0877 -0.022,0.16949 -0.0654,0.24575 -0.0438,0.0763 -0.10345,0.13588 -0.17884,0.17884 -0.0757,0.043 -0.15866,0.0645 -0.24956,0.0645 -0.13384,0 -0.24807,-0.0474 -0.34244,-0.14203 -0.0947,-0.0949 -0.14203,-0.21008 -0.14203,-0.34537 0,-0.14522 0.0534,-0.2662 0.16043,-0.36292 0.0938,-0.0842 0.20133,-0.12624 0.32319,-0.12624 z m 0.004,0.21915 c -0.0728,0 -0.13326,0.025 -0.18146,0.0754 -0.0482,0.0506 -0.0725,0.11486 -0.0725,0.19344 0,0.0807 0.0241,0.14611 0.0717,0.19608 0.0477,0.05 0.10812,0.0751 0.18146,0.0751 0.0731,0 0.13383,-0.0254 0.18262,-0.076 0.0485,-0.0506 0.0727,-0.11571 0.0727,-0.1952 0,-0.0798 -0.0239,-0.14435 -0.0717,-0.19432 -0.0477,-0.0497 -0.10871,-0.0745 -0.18291,-0.0745 z m 0.80227,-0.19636 h 0.0824 c 6.3e-4,-0.12186 0.003,-0.19374 0.006,-0.21595 0.007,-0.0511 0.0278,-0.0918 0.0642,-0.12155 0.0368,-0.0298 0.0885,-0.0447 0.15544,-0.0447 0.0485,0 0.10287,0.0111 0.16366,0.0333 v 0.17765 c -0.0336,-0.01 -0.0611,-0.0145 -0.0827,-0.0145 -0.0273,0 -0.047,0.006 -0.0596,0.0168 -0.009,0.009 -0.0137,0.0262 -0.0137,0.0529 l -8.8e-4,0.11601 h 0.14814 v 0.19812 h -0.14726 v 0.73285 h -0.2332 v -0.73285 h -0.0824 z"
       style="fill:#8ac34a;fill-rule:evenodd;stroke-width:0.0621246"
       id="path8" /></g></svg>
